<?xml version="1.0" encoding="utf-8"?>
<!-- Generator: Adobe Illustrator 24.2.1, SVG Export Plug-In . SVG Version: 6.00 Build 0)  -->
<svg version="1.1" id="_x2014_ÎÓÈ_x5F_1" xmlns="http://www.w3.org/2000/svg" xmlns:xlink="http://www.w3.org/1999/xlink"
	 x="0px" y="0px" viewBox="0 0 1414 893" style="enable-background:new 0 0 1414 893;" xml:space="preserve">
<style type="text/css">
	.st0{fill:url(#SVGID_1_);}
	.st1{fill:#42B0BC;}
	.st2{fill:#6BDBC8;}
	.st3{fill:url(#SVGID_2_);}
	.st4{fill:#728589;}
	.st5{fill:#DAF2F0;}
	.st6{fill:#FFFFFF;}
	.st7{fill:#BAD8D3;}
	.st8{fill:#6E868E;}
	.st9{fill:#2D769E;}
</style>
<g>
	<linearGradient id="SVGID_1_" gradientUnits="userSpaceOnUse" x1="262.7162" y1="450.4826" x2="1154.4552" y2="450.4826">
		<stop  offset="0.2434" style="stop-color:#6BDBC8"/>
		<stop  offset="1" style="stop-color:#66BBC3"/>
	</linearGradient>
	<path class="st0" d="M1106.86,577.96c0.23-9.62-0.3-41.51-30.3-72.58c-27.96-28.97-71.39-32.8-87.64-24.25
		c12.4-17.35,8.13-59.73-14.08-88.39c-35.78-46.17-84.91-38.37-97.3-36.76c-0.5-5.07-2.66-18.38-11.86-33.04
		c-10.55-16.81-32.78-38.54-78.74-46.61c-51.29-9-85.01,4.22-104.27,16.9c-17.01,11.19-25.91,23.67-28.85,28.33
		c-9.7-6.82-58.19-37.33-111.06-8.12c-23.81,13.16-36.84,30.98-43.89,47.57c-19.4-5.61-34.58,0.9-40.85,4.42
		c0,0-50.04-19.65-79.69,22.47c-29.65,42.13-5.41,76.98-5.41,76.98s-41.21,1.1-76.35,41.99c-51.43,59.84-28.98,120.72-28.98,120.72
		h884.95c1.05,0,1.91-0.86,1.91-1.91C1154.46,588.96,1115.62,579.6,1106.86,577.96z"/>
	<path class="st1" d="M377.98,626.45h610.91c0,0,1.93-25.72-21.37-36.24c-23.3-10.52-43.98,5.93-43.98,5.93s-1.23-15.03-18.45-19.16
		c-17.22-4.13-25.51,8.6-25.51,8.6s9.12-41.11-28.98-62.95c-41.17-23.61-80.53,10.25-80.53,10.25s-41.16-36.26-98.68-19.16
		c-52.15,15.5-61.21,61.27-61.21,61.27s-4.44-17.64-24.35-23.15c-23.06-6.38-38.22,5.19-38.22,5.19s-12.3-45.27-68.87-36.01
		c-61.6,10.08-54.51,56.38-54.51,56.38s-22-9.2-39.24,6.7C367.74,600,377.98,626.45,377.98,626.45z"/>
	<g>
		<path class="st2" d="M339.27,449.33l-3.6-2.13l2.13-3.6c0.57-0.96,0.25-2.22-0.72-2.78c-0.96-0.57-2.22-0.25-2.78,0.72l-2.13,3.6
			l-3.6-2.13c-0.96-0.57-2.22-0.25-2.78,0.72c-0.57,0.96-0.25,2.22,0.72,2.78l3.6,2.13l-2.13,3.6c-0.57,0.96-0.25,2.22,0.72,2.78
			c0.96,0.57,2.22,0.25,2.78-0.72l2.13-3.6l3.6,2.13c0.96,0.57,2.22,0.25,2.78-0.72C340.56,451.15,340.24,449.9,339.27,449.33z"/>
		<path class="st2" d="M1020.84,461.46l-2.31-1.36l1.36-2.31c0.36-0.62,0.16-1.42-0.46-1.79c-0.62-0.36-1.42-0.16-1.79,0.46
			l-1.36,2.31l-2.31-1.36c-0.62-0.36-1.42-0.16-1.79,0.46c-0.36,0.62-0.16,1.42,0.46,1.79l2.31,1.36l-1.36,2.31
			c-0.36,0.62-0.16,1.42,0.46,1.79c0.62,0.36,1.42,0.16,1.79-0.46l1.36-2.31l2.31,1.36c0.62,0.36,1.42,0.16,1.79-0.46
			C1021.66,462.63,1021.46,461.83,1020.84,461.46z"/>
		<path class="st2" d="M454.98,349.63l-2.98-1.76l1.76-2.98c0.47-0.8,0.2-1.84-0.59-2.31c-0.8-0.47-1.84-0.2-2.31,0.59l-1.76,2.98
			l-2.98-1.76c-0.8-0.47-1.84-0.2-2.31,0.59c-0.47,0.8-0.2,1.84,0.59,2.31l2.98,1.76l-1.76,2.98c-0.47,0.8-0.2,1.84,0.59,2.31
			c0.8,0.47,1.84,0.2,2.31-0.59l1.76-2.98l2.98,1.76c0.8,0.47,1.84,0.2,2.31-0.59C456.05,351.14,455.78,350.1,454.98,349.63z"/>
	</g>
	<linearGradient id="SVGID_2_" gradientUnits="userSpaceOnUse" x1="274.4352" y1="645.9444" x2="1072.9285" y2="645.9444">
		<stop  offset="0" style="stop-color:#D9D6D7"/>
		<stop  offset="0.5271" style="stop-color:#ACA5A7"/>
		<stop  offset="1" style="stop-color:#D9D6D7"/>
	</linearGradient>
	<path class="st3" d="M1072.77,628.33c0,0,3.2,4.24-19.33,8.89c-26.44,5.46-90.7,1.35-96.99,11.43
		c-6.86,11.01,43.79,7.91,43.21,20.76c-0.49,10.93-34.94,10.53-73.77,10.53c-38.83,0-403.82,0-435.26,0
		c-31.45,0-25.76-9.53-21.3-13.86c6.47-6.3,3.62-12.11-24.67-12.91c-27.47-0.78-47.58-1.45-62.57-1.45
		c-39.98,0-32.13-13.18-63.28-13.18c-20.14,0-44.37-5.07-44.37-10.94c128.7-10.22,268.09-16.27,416.86-15.6
		C826.73,612.6,954.22,618.69,1072.77,628.33z"/>
</g>
<path class="st4" d="M614.29,661.73h51.04c0,0-0.55-18.76-19.6-21.47c-6.94-0.99-12.82-1.02-17.51-0.66l6.4-69.26l-22.64-7.57
	l4.71,78.84c-0.81,0.25-1.24,0.42-1.24,0.42L614.29,661.73z"/>
<path class="st4" d="M731.99,661.73h51.04c0,0-0.55-18.76-19.6-21.47c-6.94-0.99-12.82-1.02-17.51-0.66l6.4-69.26l-22.64-7.57
	l4.71,78.84c-0.81,0.25-1.24,0.42-1.24,0.42L731.99,661.73z"/>
<path class="st5" d="M579.42,466.55c0,22.43,0.59,57.61,0.9,86.75c0.1,9.44,7.78,17.03,17.22,17.03h164.17
	c9.51,0,17.22-7.71,17.22-17.22V441.24c0,0,4.27-32.72-37.26-32.72c-51.96,0-100.97,2.59-129.28,7.5
	C584.08,420.93,579.42,446.03,579.42,466.55z"/>
<path class="st6" d="M606.12,553.3c-0.31-29.14-0.9-64.32-0.9-86.75c0-20.52,4.66-45.62,32.97-50.53
	c24.52-4.25,56.92-6.76,98.91-7.35c-1.81-0.09-3.68-0.14-5.65-0.14c-51.96,0-90.75,2.59-119.06,7.5
	c-28.31,4.9-32.97,30.01-32.97,50.53c0,22.43,0.59,57.61,0.9,86.75c0.1,9.44,7.78,17.03,17.22,17.03h25.8
	C613.9,570.33,606.22,562.74,606.12,553.3z"/>
<path class="st5" d="M609.29,401.97c30.19,0,103.74,0,131.88,0c28.14,0,37.75-14.03,37.75-53.67s-22.57-92.87-93.24-92.87
	s-97.21,42.53-102.99,81.78C576.91,376.45,581.52,401.97,609.29,401.97z"/>
<path class="st6" d="M605.88,339.37c5.6-37.93,34.22-69.79,102.69-69.79c12.9,0,23.96,0.58,33.46,1.65
	c-13.9-9.66-32.34-15.8-56.34-15.8c-70.67,0-97.21,42.53-102.99,81.78c-5.78,39.24-1.18,64.76,26.59,64.76c5.97,0,13.66,0,22.35,0
	C604.73,401.97,600.27,377.31,605.88,339.37z"/>
<path class="st7" d="M767.77,348.3c0-12.85-2.37-27.12-7.98-40.55c-4.45-10.65-14.88-17.59-26.43-17.59h-63.87
	c-35.63,0-62.44,37.77-53.68,68.13c8.76,30.36,45.51,25.91,76.46,25.91h52.13c11.83,0,21.75-9.01,22.78-20.79
	C767.58,358.86,767.77,353.83,767.77,348.3z"/>
<ellipse transform="matrix(0.1602 -0.9871 0.9871 0.1602 230.02 940.5841)" class="st8" cx="667.77" cy="335.11" rx="11.81" ry="11.81"/>
<path class="st8" d="M752.64,335.11c0,3.97-3.22,7.19-7.19,7.19s-7.19-3.22-7.19-7.19c0-3.97,3.22-7.19,7.19-7.19
	S752.64,331.14,752.64,335.11z"/>
<path class="st4" d="M569.47,552.03c-1.79-13.49-9.66-19.45-17-20.46c-0.07-0.01-0.11,0-0.18,0c-0.27-0.08-0.49-0.21-0.77-0.28
	c-7.94-2.12-16.99,0.65-21.53,5.02c-5.92,5.71-6.13,13.79-6.13,13.79c-0.19,0.82-0.24,1.7-0.13,2.6l1.35,10.51
	c0.45,3.52,3.33,5.98,6.4,5.46c1.53-0.26,2.83-1.21,3.69-2.54l0.05,1.17c0.14,3.56,2.79,6.34,5.89,6.18
	c1.29-0.07,2.45-0.64,3.37-1.53l-0.01,0.07c-0.35,3.31,1.73,6.35,4.61,6.74l0.72,0.1c2.88,0.4,5.52-1.99,5.87-5.3l0.64-6.09v-17.71
	c0,0,4.87,1.37,5.68,9.98C562.81,568.34,571.26,565.51,569.47,552.03z"/>
<path class="st4" d="M601.92,436.33c-1.58-5.16-7.59-7.53-12.22-4.77c-21.86,13.04-36.78,32.84-43.59,52.9
	c-10.59,31.18-7.91,61.16-7.91,61.16l12.78,1.45c3.47-52.96,26.12-76.87,42.3-87.29C601.09,454.76,604.65,445.2,601.92,436.33
	L601.92,436.33z"/>
<path class="st4" d="M676.44,431.2l-16.64-8.79c-2.57-1.36-3.56-4.57-2.2-7.15l0,0c1.36-2.57,4.57-3.56,7.15-2.2l16.64,8.79
	c2.57,1.36,3.56,4.57,2.2,7.15l0,0C682.23,431.57,679.01,432.56,676.44,431.2z"/>
<path class="st9" d="M673.75,292.57c-25.97-1.65-48.37,18.07-50.02,44.04c-1.65,25.97,18.06,48.37,44.04,50.02
	c25.97,1.65,48.37-18.06,50.02-44.04C719.44,316.62,699.72,294.22,673.75,292.57z M668.34,377.71
	c-21.04-1.34-37.02-19.48-35.68-40.53c1.34-21.04,19.48-37.02,40.53-35.68c21.04,1.34,37.02,19.48,35.68,40.53
	C707.52,363.07,689.38,379.04,668.34,377.71z"/>
<path class="st9" d="M661.17,490.34L661.17,490.34c-2.85-0.18-5.01-2.64-4.83-5.49l6.42-100.97l10.32,0.66l-6.42,100.97
	C666.48,488.36,664.02,490.52,661.17,490.34z"/>
<path class="st4" d="M681.38,421.85c-3.99-2.11-7.07,2.05-8.64,4.93c-0.36-0.36-0.77-0.7-1.24-0.95l-16.64-8.79
	c-2.57-1.36-5.79-0.37-7.15,2.2c-1.17,2.22-0.59,4.91,1.24,6.48c-2.01-0.12-4,0.91-4.99,2.79c-1.36,2.57-0.37,5.79,2.2,7.15
	l1.79,0.95c-2.57-1.36-5.79-0.37-7.15,2.2c-1.36,2.57-0.37,5.79,2.2,7.15l16.64,8.79c0,0,15.62,8.35,23.97-7.45
	C691.98,431.5,687.25,424.95,681.38,421.85z"/>
<path class="st4" d="M740.76,408.91L740.76,408.91c25.21,2.2,33.91,13.36,36.84,21.96c6.67,1.65,13.56,5.43,15.94,13.85
	c3.12,11.02-0.41,27.23-34.95,24.51c-34.54-2.72-76.01-31.94-76.01-31.94l-4,11.83c0,0,21.59,17.45,54.14,30.47
	c29.55,11.82,80.28,9.96,80.28-30.64C813,408.35,751.71,408.91,740.76,408.91z"/>
<path class="st5" d="M594.6,241.93c-7.24-3.22-13.91-4.81-18.55-5.59c-0.89-4.01-4.68-6.78-8.85-6.3c-4.46,0.51-7.66,4.54-7.15,9
	c0.51,4.46,4.54,7.66,9,7.15c3.08-0.35,5.56-2.39,6.63-5.09c4.36,0.76,10.54,2.27,17.16,5.23c16.51,7.4,27.77,19.92,33.45,37.2
	l4.51-1.48C623.15,258.8,606.89,247.4,594.6,241.93z"/>
</svg>
